<?xml version="1.0" encoding="utf-8"?>
<!-- Generator: Adobe Illustrator 25.2.0, SVG Export Plug-In . SVG Version: 6.00 Build 0)  -->
<svg version="1.1" id="Layer_2_1_" xmlns="http://www.w3.org/2000/svg" xmlns:xlink="http://www.w3.org/1999/xlink" x="0px" y="0px"
	 viewBox="0 0 213.2 38.5" style="enable-background:new 0 0 213.2 38.5;" xml:space="preserve">
<style type="text/css">
	.st0{fill:#263F8F;}
	.st1{fill:url(#SVGID_1_);}
	.st2{fill:url(#SVGID_2_);}
	.st3{fill:url(#SVGID_3_);}
</style>
<image style="display:none;overflow:visible;" width="1280" height="373" xlink:href="63C871A3.jpg"  transform="matrix(0.282 0 0 0.282 -61.7523 -137.6471)">
</image>
<path class="st0" d="M93.1,24.1c-1.4,1.4-3.2,2-5.1,2c-5,0-7.1-3.4-7.1-6.9c0-3.5,2.3-7.1,7.1-7.1c1.8,0,3.5,0.7,4.9,2.1l-1.7,1.6
	c-0.9-0.9-2.1-1.3-3.2-1.3c-3.2,0-4.6,2.4-4.6,4.7c0,2.2,1.3,4.6,4.6,4.6c1.2,0,2.5-0.5,3.4-1.4L93.1,24.1L93.1,24.1L93.1,24.1z"/>
<path class="st0" d="M96.8,16.4l0.2,1.1c0.7-1.2,1.7-1.3,2.7-1.3s1.9,0.4,2.4,0.9l-1.1,2c-0.5-0.4-0.9-0.6-1.7-0.6
	c-1.2,0-2.4,0.7-2.4,2.4v5h-2.3v-9.5H96.8L96.8,16.4z"/>
<path class="st0" d="M104.9,21.9c0.2,1.2,1.2,2,2.8,2c0.9,0,2-0.3,2.5-0.9l1.5,1.5c-1,1-2.6,1.5-4.1,1.5c-3.3,0-5.2-2-5.2-5s2-5,5-5
	s5.1,2,4.8,5.9L104.9,21.9L104.9,21.9L104.9,21.9z M110.1,20c-0.2-1.2-1.1-1.8-2.5-1.8c-1.3,0-2.3,0.6-2.6,1.8H110.1z"/>
<path class="st0" d="M123.9,12.4v13.4h-2.2l-0.2-1.3c-0.7,1.1-1.9,1.5-3,1.5c-2.8,0-4.9-1.8-4.9-5c0-3.3,2.1-5,4.8-5
	c1,0,2.6,0.5,3.1,1.5v-5.2C121.6,12.4,123.9,12.4,123.9,12.4z M116,21.1c0,1.7,1.2,2.8,2.7,2.8s2.7-1.1,2.7-2.8s-1.3-2.8-2.7-2.8
	S116,19.4,116,21.1z"/>
<path class="st0" d="M128.3,21.9c0.2,1.2,1.2,2,2.8,2c0.9,0,2-0.3,2.5-0.9l1.5,1.5c-1,1-2.6,1.5-4.1,1.5c-3.3,0-5.2-2-5.2-5s2-5,5-5
	s5.1,2,4.8,5.9L128.3,21.9L128.3,21.9z M133.5,20c-0.2-1.2-1.1-1.8-2.5-1.8c-1.3,0-2.3,0.6-2.6,1.8H133.5L133.5,20z"/>
<path class="st0" d="M144.6,25.8v-5c0-1.4-0.8-2.5-2.3-2.5c-1.5,0-2.4,1.2-2.4,2.7v4.8h-2.3v-9.5h2.1l0.2,1.3c1-0.9,1.9-1.4,3.1-1.4
	c2.2,0,4,1.7,4,4.6v5L144.6,25.8L144.6,25.8z"/>
<path class="st0" d="M152.6,13.7v2.7h2.6v2h-2.6v4.1c0,0.9,0.5,1.3,1.2,1.3c0.4,0,0.8-0.1,1.1-0.3l0.7,2c-0.7,0.3-1.2,0.4-1.9,0.4
	c-2.1,0.1-3.4-1.1-3.4-3.5v-4.1h-1.8v-2h1.8v-2.4L152.6,13.7L152.6,13.7z"/>
<path class="st0" d="M159.7,13.7c0,1.8-2.8,1.8-2.8,0S159.7,11.9,159.7,13.7z M157.2,16.3v9.5h2.3v-9.5H157.2z"/>
<path class="st0" d="M169.5,16.4h2.2v9.5h-2.2l-0.1-1.4c-0.5,1.1-2,1.7-3.1,1.7c-2.8,0-4.9-1.7-4.9-5s2.2-5,4.9-5
	c1.3,0,2.5,0.6,3,1.5L169.5,16.4L169.5,16.4L169.5,16.4z M163.8,21.1c0,1.8,1.3,2.9,2.8,2.9c3.7,0,3.7-5.7,0-5.7
	C165.1,18.2,163.8,19.3,163.8,21.1z"/>
<path class="st0" d="M176.7,12.4v13.4h-2.3V12.4H176.7z"/>
<path class="st0" d="M181.8,13.7c0,1.8-2.8,1.8-2.8,0S181.8,11.9,181.8,13.7z M179.3,16.3v9.5h2.3v-9.5H179.3z"/>
<path class="st0" d="M191.2,25.8v-5c0-1.4-0.8-2.5-2.3-2.5c-1.5,0-2.4,1.2-2.4,2.7v4.8h-2.3v-9.5h2.1l0.2,1.3c1-0.9,1.9-1.4,3.1-1.4
	c2.2,0,4,1.7,4,4.6v5L191.2,25.8L191.2,25.8L191.2,25.8z"/>
<path class="st0" d="M204,15.3l1.7,1.3l-1.2,1.4c0.8,1,1.1,1.8,1.1,2.8c0,1.7-0.8,2.8-2.3,3.5c2,0.7,2.3,2.1,2.3,3.1
	c0,2.7-2.6,4-5.2,4c-3.3,0-5.2-1.7-5.1-4.4h2.3c-0.1,1.3,1.3,2.1,2.8,2.1c1.3,0,2.7-0.6,2.7-1.7s-0.9-1.9-2.7-1.9
	c-3.1,0-5.2-1.8-5.2-4.8c0-3.2,2.5-4.8,5.2-4.8c0.7,0,1.8,0.2,2.4,0.6L204,15.3C204,15.3,204,15.3,204,15.3z M197.7,20.8
	c0,1.7,1.3,2.6,2.8,2.6c1.5,0,2.8-1,2.8-2.6s-1.3-2.6-2.8-2.6C199,18.2,197.7,19.1,197.7,20.8z"/>
<rect x="39.8" y="6.7" class="st0" width="0.2" height="24.4"/>
<g>
	
		<linearGradient id="SVGID_1_" gradientUnits="userSpaceOnUse" x1="21.2502" y1="655.7454" x2="10.3256" y2="655.7454" gradientTransform="matrix(1 0 0 1 0 -636.87)">
		<stop  offset="0" style="stop-color:#29387E"/>
		<stop  offset="1" style="stop-color:#F6901E"/>
	</linearGradient>
	<path class="st1" d="M17.1,7.9c-0.4,0-0.9,0-1.4,0.2C13,9.3,9.2,12.5,9.2,18.9s3.9,9.5,6.4,10.7c0.4,0.1,0.7,0.2,1.1,0.2
		c0.3,0,0.6,0,0.9-0.1c1.1-0.1,2.3-0.6,3.4-1.6c-2.1-1.7-4.2-4.6-4.2-9.3s2.1-7.5,4.2-9.2c-1.2-1-2.3-1.5-3.5-1.7
		C17.7,8,17.4,7.9,17.1,7.9L17.1,7.9L17.1,7.9z"/>
	
		<linearGradient id="SVGID_2_" gradientUnits="userSpaceOnUse" x1="25.487" y1="646.7683" x2="11.7379" y2="646.7683" gradientTransform="matrix(1 0 0 1 0 -636.87)">
		<stop  offset="0" style="stop-color:#233F8E"/>
		<stop  offset="1" style="stop-color:#E58F25"/>
	</linearGradient>
	<path class="st2" d="M22.4,6.7c-2.4,0-4.8,0.7-4.8,0.7c0.1,0,0.1,0,0.2,0c1.3,0,2.7,0.8,3.9,1.9c2,1.7,3.9,3.9,5.6,3.9
		c2.7,0,4-1.4,4-1.4C27.9,7.7,24.8,6.7,22.4,6.7L22.4,6.7z"/>
	
		<linearGradient id="SVGID_3_" gradientUnits="userSpaceOnUse" x1="25.487" y1="664.7858" x2="11.7379" y2="664.7858" gradientTransform="matrix(1 0 0 1 0 -636.87)">
		<stop  offset="0" style="stop-color:#233F8E"/>
		<stop  offset="1" style="stop-color:#E58F25"/>
	</linearGradient>
	<path class="st3" d="M27.3,24.7c-1.7,0-3.6,2.2-5.6,3.9c-1.2,1-2.4,1.8-3.7,1.8c-0.1,0-0.1,0-0.2,0c-0.1,0-0.1,0-0.2,0
		c0,0,2.4,0.7,4.8,0.7s5.5-1,8.9-5C31.3,26.1,30,24.7,27.3,24.7L27.3,24.7L27.3,24.7z"/>
</g>
<g>
	<path class="st0" d="M47.5,14.7h-4.3v-2.3h11.1v2.3H50v11.1h-2.5V14.7z"/>
	<path class="st0" d="M57.8,12.4v5.3c0.9-1.1,1.9-1.4,3-1.4c2.7,0,3.9,1.8,3.9,4.6v5h-2.3v-5c0-1.7-0.9-2.5-2.2-2.5
		c-1.4,0-2.3,1.2-2.3,2.6v4.8h-2.3V12.4H57.8z"/>
	<path class="st0" d="M68.6,21.9c0.2,1.2,1.2,2,2.8,2c0.9,0,2-0.3,2.5-0.9l1.5,1.5c-1,1-2.6,1.5-4.1,1.5c-3.3,0-5.2-2-5.2-5.1
		s2-5,5-5c3.1,0,5.1,2,4.8,5.9H68.6z M73.7,20c-0.2-1.2-1.1-1.8-2.5-1.8c-1.3,0-2.3,0.6-2.7,1.8H73.7L73.7,20z"/>
</g>
</svg>
